<svg width="358" height="364" viewBox="0 0 358 364" fill="none" xmlns="http://www.w3.org/2000/svg">
<g filter="url(#filter0_dd_129_5)">
<path d="M345.694 156.751L313.25 124.327V44.9457C313.25 32.6471 303.181 22.5846 290.875 22.5846H268.5C256.194 22.5846 246.125 32.6471 246.125 44.9457V57.2442L201.375 12.5222C195.334 6.70831 189.74 0 179 0C168.26 0 162.666 6.70831 156.625 12.5222L12.3062 156.751C5.37 163.906 0 169.273 0 179.112C0 191.634 9.62125 201.473 22.375 201.473H44.75V335.639C44.75 347.938 54.8188 358 67.125 358H134.25V246.195C134.25 233.896 144.319 223.834 156.625 223.834H201.375C213.681 223.834 223.75 233.896 223.75 246.195V358H290.875C303.181 358 313.25 347.938 313.25 335.639V201.473H335.625C348.379 201.473 358 191.634 358 179.112C358 169.273 352.63 163.906 345.694 156.751Z" fill="white"/>
<path d="M345.694 156.751L313.25 124.327V44.9457C313.25 32.6471 303.181 22.5846 290.875 22.5846H268.5C256.194 22.5846 246.125 32.6471 246.125 44.9457V57.2442L201.375 12.5222C195.334 6.70831 189.74 0 179 0C168.26 0 162.666 6.70831 156.625 12.5222L12.3062 156.751C5.37 163.906 0 169.273 0 179.112C0 191.634 9.62125 201.473 22.375 201.473H44.75V335.639C44.75 347.938 54.8188 358 67.125 358H134.25V246.195C134.25 233.896 144.319 223.834 156.625 223.834H201.375C213.681 223.834 223.75 233.896 223.75 246.195V358H290.875C303.181 358 313.25 347.938 313.25 335.639V201.473H335.625C348.379 201.473 358 191.634 358 179.112C358 169.273 352.63 163.906 345.694 156.751Z" fill="url(#paint0_linear_129_5)"/>
<path d="M290.875 357H224.75V246.195C224.75 233.343 214.233 222.834 201.375 222.834H156.625C143.767 222.834 133.25 233.343 133.25 246.195V357H67.125C55.3704 357 45.75 347.385 45.75 335.639V201.473V200.473H44.75H22.375C10.1795 200.473 1 191.088 1 179.112C1 169.849 5.92422 164.77 12.7711 157.708L13.0131 157.458L13.0243 157.447L157.318 13.2427C157.321 13.2406 157.323 13.2385 157.325 13.2364C157.944 12.6403 158.555 12.0398 159.163 11.442C164.581 6.11518 169.784 1 179 1C188.216 1 193.419 6.11518 198.837 11.442C199.445 12.0397 200.055 12.64 200.675 13.236C200.677 13.2383 200.679 13.2405 200.682 13.2427L245.418 57.9515L247.125 59.6574V57.2442V44.9457C247.125 33.2 256.745 23.5846 268.5 23.5846H290.875C302.63 23.5846 312.25 33.2 312.25 44.9457V124.327V124.742L312.543 125.035L344.976 157.447L344.987 157.458L345.229 157.708C352.076 164.77 357 169.849 357 179.112C357 191.088 347.82 200.473 335.625 200.473H313.25H312.25V201.473V335.639C312.25 347.385 302.63 357 290.875 357Z" stroke="white" stroke-opacity="0.3" stroke-width="2"/>
</g>
<defs>
<filter id="filter0_dd_129_5" x="0" y="0" width="358" height="364" filterUnits="userSpaceOnUse" color-interpolation-filters="sRGB">
<feFlood flood-opacity="0" result="BackgroundImageFix"/>
<feColorMatrix in="SourceAlpha" type="matrix" values="0 0 0 0 0 0 0 0 0 0 0 0 0 0 0 0 0 0 127 0" result="hardAlpha"/>
<feOffset dy="6"/>
<feComposite in2="hardAlpha" operator="out"/>
<feColorMatrix type="matrix" values="0 0 0 0 0 0 0 0 0 0 0 0 0 0 0 0 0 0 1 0"/>
<feBlend mode="normal" in2="BackgroundImageFix" result="effect1_dropShadow_129_5"/>
<feColorMatrix in="SourceAlpha" type="matrix" values="0 0 0 0 0 0 0 0 0 0 0 0 0 0 0 0 0 0 127 0" result="hardAlpha"/>
<feOffset dy="6"/>
<feComposite in2="hardAlpha" operator="out"/>
<feColorMatrix type="matrix" values="0 0 0 0 0.898039 0 0 0 0 0.627451 0 0 0 0 0.0509804 0 0 0 0.5 0"/>
<feBlend mode="normal" in2="effect1_dropShadow_129_5" result="effect2_dropShadow_129_5"/>
<feBlend mode="normal" in="SourceGraphic" in2="effect2_dropShadow_129_5" result="shape"/>
</filter>
<linearGradient id="paint0_linear_129_5" x1="179" y1="0" x2="179" y2="358" gradientUnits="userSpaceOnUse">
<stop stop-color="#E5A00D" stop-opacity="0.49"/>
<stop offset="0.489583" stop-color="#E5A00D"/>
</linearGradient>
</defs>
</svg>
