<svg width="324" height="300" viewBox="0 0 324 300" fill="none" xmlns="http://www.w3.org/2000/svg">
<g filter="url(#filter0_dd_129_5)">
<path d="M283.5 102.101L312.862 128.728L313.183 129.028C319.304 134.756 324 139.15 324 147.092C324 157.375 315.293 165.455 303.75 165.455H283.5V275.636C283.5 285.736 274.388 294 263.25 294H202.5H121.5H60.75C49.6125 294 40.5 285.736 40.5 275.636V165.455H20.25C8.7075 165.455 0 157.375 0 147.092C0 139.012 4.86 134.605 11.1375 128.728L141.75 10.2836C147.217 5.50906 152.28 0 162 0C171.72 0 176.783 5.50906 182.25 10.2836L222.75 47.0106V36.9107C222.75 26.8107 231.863 18.5472 243 18.5472H263.25C274.388 18.5472 283.5 26.8107 283.5 36.9107V102.101Z" fill="white"/>
<path d="M283.5 102.101L312.862 128.728L313.183 129.028C319.304 134.756 324 139.15 324 147.092C324 157.375 315.293 165.455 303.75 165.455H283.5V275.636C283.5 285.736 274.388 294 263.25 294H202.5H121.5H60.75C49.6125 294 40.5 285.736 40.5 275.636V165.455H20.25C8.7075 165.455 0 157.375 0 147.092C0 139.012 4.86 134.605 11.1375 128.728L141.75 10.2836C147.217 5.50906 152.28 0 162 0C171.72 0 176.783 5.50906 182.25 10.2836L222.75 47.0106V36.9107C222.75 26.8107 231.863 18.5472 243 18.5472H263.25C274.388 18.5472 283.5 26.8107 283.5 36.9107V102.101Z" fill="url(#paint0_linear_129_5)"/>
<path d="M282.5 102.101V102.544L282.828 102.842L312.179 129.458L312.191 129.469L312.499 129.758L313.183 129.028L312.499 129.758C318.671 135.533 323 139.645 323 147.092C323 156.74 314.828 164.455 303.75 164.455H283.5H282.5V165.455V275.636C282.5 285.094 273.929 293 263.25 293H202.5H121.5H60.75C50.0705 293 41.5 285.094 41.5 275.636V165.455V164.455H40.5H20.25C9.17237 164.455 1 156.74 1 147.092C1 139.586 5.3943 135.473 11.6368 129.631L11.8093 129.469L11.8209 129.458L142.408 11.0368C142.41 11.0348 142.412 11.0328 142.415 11.0308C142.976 10.5409 143.528 10.0475 144.079 9.55647C148.975 5.18822 153.669 1 162 1C170.331 1 175.025 5.18822 179.921 9.55647C180.472 10.0475 181.024 10.5409 181.585 11.0308C181.588 11.0328 181.59 11.0348 181.592 11.0368L222.078 47.7514L223.75 49.2674V47.0106V36.9107C223.75 27.4528 232.321 19.5472 243 19.5472H263.25C273.929 19.5472 282.5 27.4528 282.5 36.9107V102.101Z" stroke="white" stroke-opacity="0.3" stroke-width="2"/>
</g>
<defs>
<filter id="filter0_dd_129_5" x="0" y="0" width="324" height="300" filterUnits="userSpaceOnUse" color-interpolation-filters="sRGB">
<feFlood flood-opacity="0" result="BackgroundImageFix"/>
<feColorMatrix in="SourceAlpha" type="matrix" values="0 0 0 0 0 0 0 0 0 0 0 0 0 0 0 0 0 0 127 0" result="hardAlpha"/>
<feOffset dy="6"/>
<feComposite in2="hardAlpha" operator="out"/>
<feColorMatrix type="matrix" values="0 0 0 0 0 0 0 0 0 0 0 0 0 0 0 0 0 0 1 0"/>
<feBlend mode="normal" in2="BackgroundImageFix" result="effect1_dropShadow_129_5"/>
<feColorMatrix in="SourceAlpha" type="matrix" values="0 0 0 0 0 0 0 0 0 0 0 0 0 0 0 0 0 0 127 0" result="hardAlpha"/>
<feOffset dy="6"/>
<feComposite in2="hardAlpha" operator="out"/>
<feColorMatrix type="matrix" values="0 0 0 0 0.898039 0 0 0 0 0.627451 0 0 0 0 0.0509804 0 0 0 0.5 0"/>
<feBlend mode="normal" in2="effect1_dropShadow_129_5" result="effect2_dropShadow_129_5"/>
<feBlend mode="normal" in="SourceGraphic" in2="effect2_dropShadow_129_5" result="shape"/>
</filter>
<linearGradient id="paint0_linear_129_5" x1="162" y1="0" x2="162" y2="294" gradientUnits="userSpaceOnUse">
<stop stop-color="#E5A00D" stop-opacity="0.5"/>
<stop offset="0.568883" stop-color="#E5A00D"/>
</linearGradient>
</defs>
</svg>
